<svg xmlns="http://www.w3.org/2000/svg" viewBox="0 0 371.87 348.08"><defs><style>.cls-1,.cls-5{fill:#231f20;}.cls-2{fill:#ffde17;}.cls-3{fill:#ffc641;}.cls-4{fill:#f9ed32;}.cls-5{stroke:#231f20;stroke-miterlimit:10;stroke-width:5px;}.cls-6{fill:#e6e7e8;}</style></defs><title>starAsset 3</title><g id="Layer_2" data-name="Layer 2"><g id="Layer_1-2" data-name="Layer 1"><path class="cls-1" d="M188.2,1.4,243.72,112a2.53,2.53,0,0,0,1.91,1.37l124.06,17.72a2.54,2.54,0,0,1,1.39,4.35l-89.71,86a2.53,2.53,0,0,0-.74,2.27l21.18,121.43a2.54,2.54,0,0,1-3.67,2.7l-111-57.39a2.52,2.52,0,0,0-2.33,0l-111,57.39a2.54,2.54,0,0,1-3.67-2.7L91.24,223.66a2.53,2.53,0,0,0-.74-2.27l-89.71-86a2.54,2.54,0,0,1,1.39-4.35l124.06-17.72a2.53,2.53,0,0,0,1.91-1.37L183.67,1.4A2.53,2.53,0,0,1,188.2,1.4Z"/><path class="cls-2" d="M188.21,8.12l52.37,106.11a2.55,2.55,0,0,0,1.91,1.39l117.1,17A2.54,2.54,0,0,1,361,137l-84.73,82.59a2.52,2.52,0,0,0-.73,2.25l20,116.63a2.54,2.54,0,0,1-3.69,2.67L187.12,286.05a2.55,2.55,0,0,0-2.37,0L80,341.11a2.54,2.54,0,0,1-3.69-2.67l20-116.63a2.52,2.52,0,0,0-.73-2.25L10.87,137a2.54,2.54,0,0,1,1.41-4.33l117.1-17a2.55,2.55,0,0,0,1.91-1.39L183.66,8.12A2.53,2.53,0,0,1,188.21,8.12Z"/><path class="cls-3" d="M188.21,21.27l48.1,97.45a2.53,2.53,0,0,0,1.91,1.39l107.55,15.63a2.54,2.54,0,0,1,1.41,4.33l-77.82,75.86a2.54,2.54,0,0,0-.74,2.25L287,325.29a2.54,2.54,0,0,1-3.69,2.68L187.12,277.4a2.55,2.55,0,0,0-2.37,0L88.56,328a2.54,2.54,0,0,1-3.69-2.68l18.38-107.11a2.54,2.54,0,0,0-.74-2.25L24.69,140.07a2.54,2.54,0,0,1,1.41-4.33l107.55-15.63a2.53,2.53,0,0,0,1.91-1.39l48.1-97.45A2.53,2.53,0,0,1,188.21,21.27Z"/><path class="cls-4" d="M266.14,124.17l-27.92-4.06a2.53,2.53,0,0,1-1.91-1.39l-48.1-97.45a2.53,2.53,0,0,0-4.55,0l-48.1,97.45a2.53,2.53,0,0,1-1.91,1.39L26.1,135.74a2.54,2.54,0,0,0-1.41,4.33l77.82,75.86a2.54,2.54,0,0,1,.74,2.25L100,237.25a2.54,2.54,0,0,0,2.69,3c69.76-5.56,136.48-48.88,165.44-112.51A2.54,2.54,0,0,0,266.14,124.17Z"/></g><g id="Layer_2-2" data-name="Layer 2"><g id="Layer_3" data-name="Layer 3"><path class="cls-5" d="M137.87,231.78c8.35,8.29,18.91,12.45,23.17,14.26,17.67,7.5,36.15,5.86,39.2,5.6,6-.53,13.06-4.34,21.54-9.76a43.65,43.65,0,0,0,10.86-10.18c2.36-3.12,3.66-4.83,4.08-7.47.9-5.67-2.79-12.15-8.15-14.94-8.07-4.2-18.71,1.12-20.69,2.38-4.36,2.76-4.36,2.76-10.83,4.33-10.43,2.52-21.09,2.32-24.44,1.35-3.52-1-6,.43-14.65-7.38-9.5-8.55-14.71-7.52-18.33-6.11-3.82,1.49-6.37,5.7-6.78,9.51C132.72,214.56,128.94,222.92,137.87,231.78Z"/><path class="cls-6" d="M208.64,211.23l-.76.44c-4.36,2.76-4.36,2.76-10.83,4.33a73,73,0,0,1-9.7,1.63c.94,2.67,5.09,12.47,11.63-1.84C199,215.79,208.88,226.87,208.64,211.23Z"/><path class="cls-6" d="M209.05,211c1.68,2.93,7.73,12.29,8.38-2.9A32.06,32.06,0,0,0,209.05,211Z"/><path class="cls-6" d="M174,218.1s4.92,16.49,12.8-.42c-6.5.62-12,.32-14.23-.33-3.52-1-6,.43-14.65-7.38a42.77,42.77,0,0,0-4.7-3.71h-.15s-7.58,21.14,8.56,6.93C161.67,213.18,160.26,230.57,174,218.1Z"/><path class="cls-6" d="M162.11,246.47a72.56,72.56,0,0,0,13.1,3.85C171.45,230.09,162.13,246.45,162.11,246.47Z"/><path class="cls-6" d="M185.87,251.73c-5-20.31-10.66-1.42-10.66-1.41A88.57,88.57,0,0,0,185.87,251.73Z"/><path class="cls-6" d="M161,246l1.07.43c-1.57-12.78-9.71-4.4-9.72-4.39C156,244,159.15,245.24,161,246Z"/><path class="cls-6" d="M212.75,247.26c2.81-1.51,5.82-3.33,9-5.38C208.6,229.2,212.74,247.24,212.75,247.26Z"/><path class="cls-6" d="M186,251.74a90.45,90.45,0,0,0,14.24-.1C192,232.58,186.64,249.53,186,251.74Z"/><path class="cls-6" d="M200.24,251.64c3.75-.33,7.88-1.92,12.51-4.38C199,227,200.24,251.64,200.24,251.64Z"/><path class="cls-5" d="M115.05,148.18c5.62-5.62,15-5.48,20.78-.29,6.1,5.47,7,15.5,1.18,21.67-5.62,5.94-15.21,5.86-21.07.59C109.68,164.53,109,154.23,115.05,148.18Z"/><path class="cls-5" d="M255.84,153.54c3,8-1.09,18.86-9.67,21-7.67,1.92-15.83-3.91-17.88-11.46-2.35-8.62,3.46-18.72,12-19.85C247.12,142.32,253.61,147.47,255.84,153.54Z"/><path class="cls-1" d="M108.37,172.21a2.31,2.31,0,0,0,.5,1.21,9.36,9.36,0,0,0,.82,1.06,12.78,12.78,0,0,0,2,1.78,16.78,16.78,0,0,0,4.46,2.8,26.66,26.66,0,0,0,10.43,2,42.19,42.19,0,0,0,5.38-.3,16.94,16.94,0,0,0,5.1-1.3,11.24,11.24,0,0,0,4.07-3.2c1.25-1.25,2.23-2.85,3.61-4.07-1.06,1.48-1.77,3.14-2.84,4.7a12.2,12.2,0,0,1-4.42,3.47,17.48,17.48,0,0,1-5.41,1.39,42.06,42.06,0,0,1-5.5.31,27.8,27.8,0,0,1-10.82-2.1,18.21,18.21,0,0,1-4.73-3,13.59,13.59,0,0,1-1.73-2.21,10.4,10.4,0,0,1-.64-1.24A2.38,2.38,0,0,1,108.37,172.21Z"/><path class="cls-1" d="M226.56,171.67a19.81,19.81,0,0,0,7,6.85,18.66,18.66,0,0,0,9.6,2,27.84,27.84,0,0,0,9.77-1.76,13.41,13.41,0,0,0,4.13-2.59,10.21,10.21,0,0,0,3-3.87,9.9,9.9,0,0,1-2.36,4.6,14.27,14.27,0,0,1-4.43,2.78,28.67,28.67,0,0,1-10.13,1.84,19.74,19.74,0,0,1-10.08-2.1,15.86,15.86,0,0,1-4.17-3.15A13.25,13.25,0,0,1,226.56,171.67Z"/><path class="cls-1" d="M178,262.6a11,11,0,0,1,1.89-1.77,18.28,18.28,0,0,1,2.37-1,15.11,15.11,0,0,1,5.09-.76,14.56,14.56,0,0,1,5,1,15.43,15.43,0,0,1,2.31,1.13,12.7,12.7,0,0,1,1.78,1.89,18.53,18.53,0,0,0-2.29-1,14.52,14.52,0,0,0-2.17-1.06,13.57,13.57,0,0,0-4.7-.94,13.94,13.94,0,0,0-4.75.71,14.65,14.65,0,0,0-2.23,1C179.59,262,178.81,262.27,178,262.6Z"/></g></g></g></svg>